<?xml version="1.0" encoding="utf-8"?>
<!-- Generator: Adobe Illustrator 21.0.0, SVG Export Plug-In . SVG Version: 6.00 Build 0)  -->
<svg version="1.1" id="Layer_1" xmlns="http://www.w3.org/2000/svg" xmlns:xlink="http://www.w3.org/1999/xlink" x="0px" y="0px"
	 viewBox="0 0 82.333 79.5" style="enable-background:new 0 0 82.333 79.5;" xml:space="preserve">
<style type="text/css">
	.st0{fill:#00A498;}
	.st1{fill:#FF9903;}
</style>
<g>
	<path class="st0" d="M35.23,70.399c-11.254,0-20.065-4.857-25.432-14.25l-0.035-0.066c-0.099-0.208-9.656-21.036,13.715-37.591
		C42.999,4.664,61.485,7.049,69.147,12.025c3.575,2.321,5.276,5.396,4.668,8.436c-0.76,3.8-4.637,7.91-8.058,11.536
		c-1.817,1.926-3.534,3.746-4.566,5.277c-1.262,1.872-1.709,3.527-1.294,4.785c0.424,1.284,1.664,1.962,2.63,2.305
		c1.449,0.514,2.665,0.754,3.738,0.965c2.473,0.488,4.426,0.873,5.602,4.258c0.429,1.233,0.193,2.764-0.68,4.424
		c-2.511,4.771-10.572,11.103-22.922,14.491C43.636,69.771,39.275,70.399,35.23,70.399z M11.556,55.194
		c4.82,8.408,15.008,17.188,36.181,11.378c11.772-3.229,19.371-9.104,21.681-13.493c0.601-1.142,0.8-2.148,0.562-2.836
		c-0.8-2.301-1.766-2.491-4.1-2.951c-1.084-0.214-2.433-0.48-4.02-1.043c-1.99-0.705-3.325-1.938-3.861-3.563
		c-0.624-1.894-0.108-4.09,1.535-6.529c1.124-1.667,2.895-3.544,4.77-5.532c3.236-3.431,6.904-7.319,7.552-10.556
		c0.438-2.194-0.944-4.515-3.796-6.366c-13.058-8.479-33.566-0.562-43.424,6.421C3.017,35.437,11.168,54.336,11.556,55.194z"/>
</g>
<g>
	<path class="st0" d="M47.398,55.646c-1.204,0-2.401-0.272-3.517-0.812c-1.942-0.94-3.402-2.582-4.111-4.621
		c-1.462-4.21,0.773-8.824,4.983-10.287c4.212-1.461,8.824,0.773,10.286,4.983l0,0c1.462,4.209-0.772,8.823-4.982,10.285
		C49.188,55.496,48.292,55.646,47.398,55.646z M47.4,41.478c-0.661,0-1.332,0.108-1.99,0.337c-3.168,1.101-4.85,4.573-3.75,7.741
		c0.533,1.534,1.631,2.77,3.093,3.478s3.113,0.803,4.647,0.271c3.168-1.101,4.85-4.572,3.75-7.74
		C52.279,43.055,49.918,41.478,47.4,41.478z"/>
</g>
<g>
	<polygon class="st0" points="51.273,53.713 15.448,19.308 16.704,17.28 54.071,50.146 	"/>
</g>
<g>
	<polygon class="st0" points="61.456,61.998 74.177,72.75 74.933,72.022 63.843,60.016 	"/>
</g>
<g>
	<path class="st0" d="M13.635,20.388c-1.556,0-4.455-0.581-6.7-4.399C4.168,11.285,2.209,8.425,2.19,8.396L0.368,5.741l3.006,1.156
		c0.084,0.033,8.43,3.241,9.854,3.683c4.269,1.325,4.595,4.46,4.41,6.211c-0.236,2.231-1.785,2.808-1.887,2.855
		C15.75,19.646,15.041,20.458,13.635,20.388z M5.539,9.867c0.82,1.291,1.893,3.022,3.12,5.109c2.171,3.691,4.942,3.464,5.504,3.378
		c0.9-0.187,1.495-0.962,1.587-1.812c0.208-1.917-0.87-3.355-3.115-4.052C11.701,12.2,8.144,10.858,5.539,9.867z"/>
</g>
<g>
	<path class="st1" d="M40.794,79.608c-1.87,0-3.391-1.521-3.391-3.392c0-1.869,1.521-3.391,3.391-3.391s3.391,1.521,3.391,3.391
		C44.186,78.087,42.664,79.608,40.794,79.608z M40.794,74.826c-0.767,0-1.391,0.624-1.391,1.391c0,0.768,0.624,1.392,1.391,1.392
		s1.391-0.624,1.391-1.392C42.186,75.45,41.562,74.826,40.794,74.826z"/>
</g>
<g>
	<g>
		<rect x="76.354" y="11.561" class="st1" width="5.938" height="2"/>
	</g>
	<g>
		<rect x="78.338" y="9.5" class="st1" width="2" height="5.938"/>
	</g>
</g>
<g>
	<path class="st0" d="M73.033,7.525c-1.893-2.207-5.41-6.313-19.261-5.392l-0.133-1.995C68.484-0.853,72.433,3.75,74.551,6.224
		L73.033,7.525z"/>
</g>
<g>
	<path class="st0" d="M28.368,10.618L27.396,8.87c0.087-0.048,8.813-4.868,18.371-7.735l0.574,1.916
		C36.989,5.855,28.453,10.57,28.368,10.618z"/>
</g>
<g>
	<path class="st0" d="M32.665,78.651c-16.741,0-21.693-7.799-21.896-8.131l1.707-1.041L11.623,70l0.851-0.525
		c0.045,0.071,4.676,7.177,20.191,7.177V78.651z"/>
</g>
<g>
	<path class="st1" d="M4.726,60.32l-1.877-0.691c0.02-0.053,2.023-5.251,9.083-4.024c4.558,0.8,6.529-3.532,6.61-3.717l1.833,0.8
		c-0.896,2.064-3.887,5.746-8.787,4.888C6.145,56.623,4.74,60.283,4.726,60.32z"/>
</g>
</svg>
